<svg t="1746346244918" class="icon" viewBox="0 0 1024 1024" version="1.1" xmlns="http://www.w3.org/2000/svg" p-id="18348" width="200" height="200"><path d="M805.546667 358.4c0-34.133333-10.24-61.44-34.133334-85.333333s-51.2-34.133333-85.333333-34.133334-61.44 10.24-85.333333 34.133334-34.133333 51.2-34.133334 85.333333 10.24 61.44 34.133334 85.333333 51.2 34.133333 85.333333 34.133334 61.44-10.24 85.333333-34.133334 34.133333-54.613333 34.133334-85.333333zM426.666667 723.626667c0 34.133333-13.653333 64.853333-37.546667 88.746666-23.893333 23.893333-54.613333 34.133333-88.746667 34.133334-23.893333 0-44.373333-6.826667-64.853333-17.066667-20.48-13.653333-34.133333-27.306667-44.373333-47.786667 20.48 6.826667 40.96 17.066667 61.44 23.893334 23.893333 10.24 51.2 10.24 75.093333 0 23.893333-10.24 40.96-27.306667 51.2-54.613334 10.24-23.893333 10.24-51.2 0-75.093333-10.24-23.893333-27.306667-40.96-54.613333-51.2L273.066667 604.16c10.24-3.413333 17.066667-3.413333 27.306666-3.413333 34.133333 0 61.44 10.24 88.746667 34.133333s37.546667 54.613333 37.546667 88.746667zM989.866667 215.04v597.333333c0 47.786667-17.066667 92.16-51.2 126.293334S860.16 989.866667 812.373333 989.866667H215.04c-47.786667 0-92.16-17.066667-126.293333-51.2S34.133333 860.16 34.133333 812.373333V716.8l105.813334 44.373333c6.826667 37.546667 27.306667 68.266667 58.026666 95.573334 30.72 23.893333 64.853333 37.546667 105.813334 37.546666 44.373333 0 81.92-13.653333 112.64-44.373333 30.72-30.72 51.2-64.853333 54.613333-109.226667l215.04-157.013333c61.44 0 116.053333-20.48 160.426667-64.853333 44.373333-44.373333 64.853333-95.573333 64.853333-157.013334 0-61.44-20.48-116.053333-64.853333-160.426666C802.133333 157.013333 750.933333 136.533333 686.08 136.533333c-61.44 0-112.64 20.48-157.013333 64.853334-44.373333 44.373333-64.853333 95.573333-68.266667 157.013333l-139.946667 201.386667h-17.066666c-30.72 0-58.026667 6.826667-85.333334 23.893333L34.133333 505.173333V211.626667c0-47.786667 17.066667-92.16 51.2-126.293334S163.84 34.133333 211.626667 34.133333h597.333333c47.786667 0 92.16 17.066667 126.293333 51.2C972.8 122.88 989.866667 163.84 989.866667 215.04z m-153.6 143.36c0 40.96-13.653333 78.506667-44.373334 105.813333-30.72 30.72-64.853333 44.373333-105.813333 44.373334-40.96 0-78.506667-13.653333-105.813333-44.373334-30.72-30.72-44.373333-64.853333-44.373334-105.813333 0-40.96 13.653333-78.506667 44.373334-105.813333 30.72-30.72 64.853333-44.373333 105.813333-44.373334 40.96 0 78.506667 13.653333 105.813333 44.373334 30.72 27.306667 44.373333 64.853333 44.373334 105.813333z m0 0" fill="#1296db" p-id="18349"></path></svg>